# Alias OBJ Model File
# Exported from SketchUp, (c) 2000-2012 Trimble Navigation Limited
# File units = meters

mtllib steps.mtl

g Mesh1 Model

usemtl Material2
v 0.675443 1.2 -0.852677
vt 0.337721 0.662474
vn 0 1 -0
v -0.714051 1.2 -0.852677
vt -0.357026 0.662474
v -0.718279 1.2 -0.827149
vt -0.35914 0.642641
v -0.736138 1.2 -0.642598
vt -0.368069 0.499257
v -0.740556 1.2 -0.582677
vt -0.370278 0.452702
v 0.721188 1.2 -0.582677
vt 0.360594 0.452702
v 0.707392 1.2 -0.625694
vt 0.353696 0.486123
v 0.704512 1.2 -0.733392
vt 0.352256 0.569798
v 0.697093 1.2 -0.816114
vt 0.348546 0.634067
f 1/1/1 2/2/1 3/3/1 4/4/1 5/5/1 6/6/1 7/7/1 8/8/1 9/9/1 

v 0.675443 0 -0.852677
vt -0.337721 1.9927e-016
vn -2.59775e-016 -3.00796e-016 -1
v -0.714051 9.02389e-017 -0.852677
vt 0.357026 2.6938e-016
vt 0.357026 0.932322
vt -0.337721 0.932322
f 10/10/2 11/11/2 2/12/2 1/13/2 

vt -0.362275 5.07143e-018
vn -0.986562 9.92108e-017 -0.163389
v -0.718279 0 -0.827149
vt -0.349337 -6.50383e-017
vn -0.991523 4.96338e-017 -0.129928
vt -0.349337 0.932322
vt -0.362275 0.932322
f 11/14/3 12/15/4 3/16/4 2/17/3 

vt -0.37706 0.932322
vt -0.37706 0
v -0.736138 0 -0.642598
vt -0.284354 0
vn -0.996386 -1.2066e-017 -0.0849364
vt -0.284354 0.932322
f 3/18/4 12/19/4 13/20/5 4/21/5 

vt -0.29336 0.932322
vt -0.29336 1.46496e-017
v -0.741246 0 -0.573331
vt -0.258632 1.46496e-017
vn -0.992488 -1.23014e-017 0.122339
v -0.741246 1.05 -0.573331
vt -0.258632 0.815781
v -0.740556 1.05 -0.582677
vt -0.263318 0.815781
vn -0.997292 -2.41305e-017 -0.0735439
vt -0.263318 0.932322
f 4/22/5 13/23/5 14/24/6 15/25/6 16/26/7 5/27/7 

vt -0.388411 0.815781
vt -0.388411 0
v -0.707169 0 -0.470123
vt -0.334067 0
vn -0.948435 -1.70341e-017 0.316973
v -0.707169 1.05 -0.470123
vt -0.334067 0.815781
f 15/28/6 14/29/6 17/30/8 18/31/8 

vt -0.335963 0.815781
vt -0.335963 1.37438e-017
v -0.646299 0 -0.290168
vt -0.240977 1.37438e-017
vn -0.996041 -1.21389e-017 0.0888933
v -0.646299 0.9 -0.290168
vt -0.240977 0.699241
v -0.653913 0.9 -0.312677
vt -0.252858 0.699241
vn -0.947277 -3.40679e-017 0.320417
v -0.653913 1.05 -0.312677
vt -0.252858 0.815781
f 18/32/8 17/33/8 19/34/9 20/35/9 21/36/10 22/37/10 

vt -0.0957957 0.699241
vt -0.0957957 -5.54799e-018
v -0.70584 0 0.108787
vt 0.105891 -5.54799e-018
vn -0.994687 5.20764e-017 -0.102943
v -0.70584 0.75 0.108787
vt 0.105891 0.582701
v -0.683235 0.75 -0.0426765
vt 0.0293205 0.582701
vn -0.989046 1.04697e-017 -0.147607
v -0.683235 0.9 -0.0426765
vt 0.0293205 0.699241
f 20/38/9 19/39/9 23/40/11 24/41/11 25/42/12 26/43/12 

vt 0.0747956 0.582701
vt 0.0747956 -5.07712e-017
v -0.727143 0 0.475026
vt 0.258225 -5.07712e-017
vn -0.995531 6.65272e-017 -0.0944395
v -0.727143 0.6 0.475026
vt 0.258225 0.466161
v -0.712735 0.6 0.227323
vt 0.134164 0.466161
vn -0.998313 9.35775e-017 -0.05807
v -0.712735 0.75 0.227323
vt 0.134164 0.582701
f 24/44/11 23/45/11 27/46/13 28/47/13 29/48/14 30/49/14 

vt 0.282989 0.466161
vt 0.282989 -2.01616e-017
v -0.778531 0 0.864878
vt 0.479601 -2.01616e-017
vn -0.989128 1.96969e-017 -0.147056
v -0.778531 0.3 0.864878
vt 0.479601 0.23308
v -0.765672 0.3 0.767323
vt 0.430402 0.23308
vn -0.991424 3.93884e-017 -0.130683
v -0.765672 0.45 0.767323
vt 0.430402 0.349621
v -0.730082 0.45 0.497323
vt 0.294234 0.349621
v -0.730082 0.6 0.497323
vt 0.294234 0.466161
f 28/50/13 27/51/13 31/52/15 32/53/15 33/54/16 34/55/16 35/56/16 36/57/16 

vt 0.49023 0.23308
vt 0.49023 0
v -0.79415 0 0.959188
vt 0.538027 0
vn -0.99998 -5.62354e-017 -0.00636425
v -0.79415 0.3 0.959188
vt 0.538027 0.23308
f 32/58/15 31/59/15 37/60/17 38/61/17 

vt 0.414222 0.23308
vt 0.414222 8.02331e-017
v -0.77829 0 1.06314
vt 0.466801 8.02331e-017
vn -0.980571 -5.5596e-017 0.196166
v -0.77829 0.15 1.06314
vt 0.466801 0.11654
v -0.78223 0.15 1.03732
vt 0.453742 0.11654
vn -0.988561 -1.11074e-016 0.150819
v -0.78223 0.3 1.03732
vt 0.453742 0.23308
f 38/62/17 37/63/17 39/64/18 40/65/18 41/66/19 42/67/19 

vt 0.422069 0.11654
vt 0.422069 0
v -0.73019 0 1.25676
vt 0.521822 0
vn -0.992047 4.37198e-020 0.12587
v -0.73019 0.15 1.25676
vt 0.521822 0.11654
f 40/68/18 39/69/18 43/70/20 44/71/20 

vt 0.625103 0.11654
vt 0.625103 -5.00183e-020
v -0.729739 9.02389e-017 1.30732
vt 0.650384 7.00597e-017
vn -0.99996 8.68389e-020 0.00891279
v -0.729739 0.15 1.30732
vt 0.650384 0.11654
f 44/72/20 43/73/20 45/74/21 46/75/21 

v 0.835197 0.15 1.30732
vt 0.417598 0.11654
vn 0 0 1
vt -0.36487 0.11654
vt -0.36487 7.01098e-017
v 0.835197 0 1.30732
vt 0.417598 0
f 47/76/22 46/77/22 45/78/22 48/79/22 

v 0.881766 0.15 1.03732
vt 0.440883 -0.805933
vt -0.391115 -0.805933
vt -0.389145 -0.825993
vt -0.365095 -0.976424
vt -0.36487 -1.01571
vt 0.417598 -1.01571
v 0.866881 0.15 1.29215
vt 0.43344 -1.00391
v 0.894862 0.15 1.24581
vt 0.447431 -0.967915
v 0.903395 0.15 1.19781
vt 0.451698 -0.930624
v 0.880449 0.15 1.04837
vt 0.440224 -0.814514
f 49/80/1 41/81/1 40/82/1 44/83/1 46/84/1 47/85/1 50/86/1 51/87/1 52/88/1 53/89/1 

v 0.881766 0.3 1.03732
vt 0.440883 0.23308
vn -3.76438e-034 -1.20319e-015 1
vt -0.391115 0.23308
vt -0.391115 0.11654
vt 0.440883 0.11654
f 54/90/23 42/91/23 41/92/23 49/93/23 

v 0.895045 0.3 0.767323
vt 0.447522 -0.59616
vt -0.382836 -0.59616
vt -0.389266 -0.671954
vt -0.397075 -0.745227
vt -0.391115 -0.805933
vt 0.440883 -0.805933
v 0.900736 0.3 0.8782
vt 0.450368 -0.682304
f 55/94/1 33/95/1 32/96/1 38/97/1 42/98/1 54/99/1 56/100/1 

v 0.895045 0.45 0.767323
vt 0.447522 0.349621
vt -0.382836 0.349621
vt -0.382836 0.23308
vt 0.447522 0.23308
f 57/101/22 34/102/22 33/103/22 55/104/22 

v 0.776757 0.45 0.497323
vt 0.388379 -0.386388
vn 1.5789e-017 1 7.85415e-017
vt -0.365041 -0.386388
v 0.891756 0.45 0.70326
vt 0.445878 -0.546387
v 0.783086 0.45 0.509922
vt 0.391543 -0.396176
f 58/105/24 35/106/24 34/95/24 57/94/24 59/107/24 60/108/24 

v 0.776757 0.6 0.497323
vt 0.388379 0.466161
vn -7.28748e-032 -1.20319e-015 1
vt -0.365041 0.466161
vt -0.365041 0.349621
vt 0.388379 0.349621
f 61/109/25 36/110/25 35/111/25 58/112/25 

v 0.797458 0.6 0.227323
vt 0.398729 -0.176616
vn 7.63818e-017 1 3.60152e-016
vt -0.356367 -0.176616
vt -0.363572 -0.369064
vt -0.365041 -0.386388
vt 0.388379 -0.386388
v 0.744567 0.6 0.433242
vt 0.372283 -0.336601
v 0.757774 0.6 0.358953
vt 0.378887 -0.278883
f 62/113/26 29/114/26 28/115/26 36/116/26 61/117/26 63/118/26 64/119/26 

v 0.797458 0.75 0.227323
vt 0.398729 0.582701
vn 1.19506e-016 -1.20319e-015 1
vt -0.356367 0.582701
vt -0.356367 0.466161
vt 0.398729 0.466161
f 65/120/27 30/121/27 29/122/27 62/123/27 

v 0.792134 0.75 -0.0426765
vt 0.396067 0.0331569
vn 4.28853e-017 1 3.99416e-016
vt -0.341618 0.0331569
vt -0.35292 -0.0845201
vt -0.356367 -0.176616
vt 0.398729 -0.176616
v 0.808786 0.75 0.189749
vt 0.404393 -0.147422
v 0.821965 0.75 0.115623
vt 0.410982 -0.0898313
v 0.809313 0.75 0.010007
vt 0.404657 -0.00777477
f 66/124/28 25/125/28 24/126/28 30/127/28 65/128/28 67/129/28 68/130/28 69/131/28 

v 0.792134 0.9 -0.0426765
vt 0.396067 0.699241
vn 2.44654e-016 -2.40637e-015 1
vt -0.341618 0.699241
vt -0.341618 0.582701
vt 0.396067 0.582701
f 70/132/29 26/133/29 25/134/29 66/135/29 

v 0.78185 0.9 -0.312677
vt 0.390925 0.242929
vn 9.93328e-017 1 7.65611e-016
vt -0.326956 0.242929
vt -0.32315 0.225441
vt -0.341618 0.0331569
vt 0.396067 0.0331569
v 0.781985 0.9 -0.0738032
vt 0.390992 0.0573402
v 0.748856 0.9 -0.127094
vt 0.374428 0.0987439
v 0.757749 0.9 -0.177114
vt 0.378874 0.137606
f 71/136/30 21/137/30 20/138/30 26/139/30 70/140/30 72/141/30 73/142/30 74/143/30 

v 0.78185 1.05 -0.312677
vt 0.390925 0.815781
vt -0.326956 0.815781
vt -0.326956 0.699241
vt 0.390925 0.699241
f 75/144/22 22/145/22 21/146/22 71/147/22 

v 0.721188 1.05 -0.582677
vt -0.370623 0.445441
vt -0.353585 0.365255
vt -0.326956 0.242929
vt 0.390925 0.242929
v 0.787762 1.05 -0.345932
vt 0.393881 0.268767
v 0.801102 1.05 -0.420962
vt 0.400551 0.32706
v 0.735543 1.05 -0.537914
vt 0.367772 0.417924
f 76/6/1 16/5/1 15/148/1 18/149/1 22/150/1 75/151/1 77/152/1 78/153/1 79/154/1 

vt 0.360594 0.932322
vt -0.370278 0.932322
vt -0.370278 0.815781
vt 0.360594 0.815781
f 6/155/22 5/156/22 16/157/22 76/158/22 

vt 0.143797 0.815781
vn 0.91687 6.39836e-016 -0.399186
v 0.735543 0 -0.537914
vt 0.143797 -4.53324e-016
v 0.707392 0 -0.625694
vt 0.189889 -4.53324e-016
vn 0.985831 6.44593e-016 -0.16774
vt 0.189889 0.932322
vt 0.167301 0.932322
vn 0.952229 6.74793e-016 -0.305385
vt 0.167301 0.815781
f 79/159/31 80/160/31 81/161/32 7/162/32 6/163/33 76/164/33 

vt -0.0122576 0.815781
vn 0.986007 6.93122e-016 -0.166701
v 0.801102 0 -0.420962
vt -0.0122576 -4.20618e-016
vt 0.054779 -4.20618e-016
vt 0.054779 0.815781
f 78/165/34 82/166/34 80/167/31 79/168/31 

vt 0.239242 0.815781
vn 0.984561 5.97333e-016 0.175043
v 0.787762 0 -0.345932
vt 0.239242 -3.92684e-016
vt 0.277345 -3.92684e-016
vt 0.277345 0.815781
f 77/169/35 83/170/35 82/171/34 78/172/34 

vt 0.153509 0.699241
vn 0.984561 6.73998e-016 0.175043
v 0.757749 0 -0.177114
vt 0.153509 -2.71007e-016
vt 0.239242 -2.71007e-016
vt 0.239242 0.815781
vt 0.222353 0.815781
vn 0.984561 4.87822e-016 0.175043
vt 0.222353 0.699241
f 74/173/36 84/174/36 83/175/35 77/176/35 75/177/37 71/178/37 

vt 0.128107 0.699241
vn 0.981981 7.69276e-016 -0.18898
v 0.748856 0 -0.127094
vt 0.128107 -4.77865e-016
vt 0.153509 -4.77865e-016
vt 0.153509 0.699241
f 73/179/38 85/180/38 84/181/36 74/182/36 

vt -0.175089 0.699241
vn 0.906574 7.13827e-016 -0.422046
v 0.781985 0 -0.0738032
vt -0.175089 -3.14876e-016
vt -0.143714 -3.14876e-016
vt -0.143714 0.699241
f 72/183/39 86/184/39 85/185/38 73/186/38 

vt -0.130205 0.582701
vn 0.976502 9.02682e-016 -0.21551
v 0.809313 0 0.010007
vt -0.130205 -5.00648e-016
vt -0.0861288 -5.00648e-016
vt -0.0861288 0.699241
vt -0.102499 0.699241
vn 0.950733 8.40868e-016 -0.310012
vt -0.102499 0.582701
f 69/187/40 87/188/40 86/189/39 72/190/39 70/191/41 66/192/41 

vt -0.106283 0.582701
vn 0.999598 7.22726e-016 0.0283601
v 0.821965 0 0.115623
vt -0.106283 -5.95863e-016
vt -0.0530976 -5.95863e-016
vt -0.0530976 0.582701
f 68/193/42 88/194/42 87/195/40 69/196/40 

vt -0.0226234 0.582701
vn 0.972658 3.83804e-016 0.232243
v 0.808786 0 0.189749
vt -0.0226234 -3.0542e-016
vt 0.0150208 -3.0542e-016
vt 0.0150208 0.582701
f 67/197/43 89/198/43 88/199/42 68/200/42 

vt -0.0624716 0.466161
vn 0.972658 7.39839e-016 0.232243
v 0.757774 0 0.358953
vt -0.0624716 -1.88355e-016
vt 0.0258918 -1.88355e-016
vt 0.0258918 0.582701
vt 0.00626916 0.582701
vn 0.957435 2.92394e-016 0.288649
vt 0.00626916 0.466161
f 64/201/44 90/202/44 89/203/43 67/204/43 65/205/45 62/206/45 

vt -0.148111 0.466161
vn 0.989537 1.243e-015 -0.144279
v 0.744567 0 0.433242
vt -0.148111 -7.44582e-016
vt -0.110384 -7.44582e-016
vt -0.110384 0.466161
f 63/207/46 91/208/46 90/209/44 64/210/44 

vt -0.403589 0.349621
vn 0.882901 9.58734e-016 -0.46956
v 0.783086 0 0.509922
vt -0.403589 -4.29654e-016
vt -0.360683 -4.29654e-016
vt -0.360683 0.466161
vt -0.396539 0.466161
vn 0.893589 1.17447e-015 -0.448886
vt -0.396539 0.349621
f 60/211/47 92/212/47 91/213/46 63/214/46 61/215/48 58/216/48 

vt -0.524999 0.349621
vn 0.960591 8.50016e-016 -0.277965
v 0.891756 0 0.70326
vt -0.524999 -2.49659e-016
vt -0.414106 -2.49659e-016
vt -0.414106 0.349621
f 59/217/49 93/218/49 92/219/47 60/220/47 

vt -0.461609 0.23308
vn 0.999433 8.66013e-016 0.0336801
v 0.900736 0 0.8782
vt -0.461609 -6.05914e-016
vt -0.374024 -6.05914e-016
vt -0.374024 0.349621
vt -0.406098 0.349621
vn 0.998685 9.12635e-016 -0.051262
vt -0.406098 0.23308
f 56/221/50 94/222/50 93/223/49 59/224/49 57/225/51 55/226/51 

vt -0.468385 0.11654
vn 0.999858 4.10332e-016 -0.0168471
v 0.880449 0 1.04837
vt -0.468385 -6.30724e-016
vt -0.382698 -6.30724e-016
vt -0.382698 0.23308
vt -0.462823 0.23308
vn 0.992968 8.13141e-016 0.118379
vt -0.462823 0.11654
f 53/227/52 95/228/52 94/229/50 56/230/50 54/231/53 49/232/53 

vt -0.660522 0.11654
vn 0.99993 0 0.0117978
v 0.903395 0 1.19781
vt -0.660522 0
vt -0.584923 0
vt -0.584923 0.11654
f 52/233/54 96/234/54 95/235/52 53/236/52 

vt -0.534969 0.11654
vn 0.936035 0 0.351908
v 0.894862 0 1.24581
vt -0.534969 0
vt -0.510594 0
vt -0.510594 0.11654
f 51/237/55 97/238/55 96/239/54 52/240/54 

vt -0.328994 0.11654
vn 0.672153 5.42548e-016 0.740412
v 0.866881 0 1.29215
vt -0.328994 0
vt -0.30193 0
vt -0.30193 0.11654
f 50/241/56 98/242/56 97/243/55 51/244/55 

vt 0.094248 -1.2438e-015
vn 0.43199 1.03966e-015 0.901879
vt 0.111814 -1.2438e-015
vt 0.111814 0.11654
vt 0.094248 0.11654
f 48/245/57 98/246/56 50/247/56 47/248/57 

vt 0.303282 0.932322
vt 0.303282 -3.38253e-016
v 0.704512 0 -0.733392
vt 0.35715 -3.38253e-016
vn 0.998313 6.14025e-016 -0.0580567
vt 0.35715 0.932322
f 7/249/32 81/250/32 99/251/58 8/252/58 

vt 0.333763 0.932322
vt 0.333763 -3.73137e-016
v 0.697093 0 -0.816114
vt 0.37529 -3.73137e-016
vn 0.95171 6.64896e-016 -0.306997
vt 0.37529 0.932322
f 8/253/58 99/254/58 100/255/59 9/256/59 

vt 0.173527 0.932322
vt 0.173527 -5.29473e-016
vt 0.194773 -5.29473e-016
vn 0.860461 6.70992e-016 -0.509517
vt 0.194773 0.932322
f 9/257/59 100/258/59 10/259/60 1/260/60 

